<svg width="70" height="70" viewBox="0 0 70 70" fill="none" xmlns="http://www.w3.org/2000/svg">
<path d="M0 0H70V70H0V0Z" fill="#D1B06B"/>
<g clip-path="url(#clip0_2_620)">
<path d="M48.9368 42.379C48.6222 42.0439 47.5114 41.0531 45.4695 39.7422C43.4125 38.4199 41.8955 37.5954 41.4604 37.4032C41.422 37.3862 41.3798 37.3799 41.3381 37.3851C41.2965 37.3903 41.2571 37.4068 41.2241 37.4327C40.5232 37.9793 39.3431 38.9834 39.2798 39.0377C38.8712 39.3878 38.8712 39.3878 38.5367 39.2787C37.9485 39.0859 36.1211 38.1155 34.5288 36.5196C32.9365 34.9237 31.9161 33.0511 31.7232 32.4635C31.6129 32.1284 31.6129 32.1284 31.9643 31.7198C32.0185 31.6565 33.0232 30.4764 33.5699 29.7761C33.5958 29.7431 33.6123 29.7037 33.6175 29.6621C33.6227 29.6205 33.6164 29.5782 33.5994 29.5399C33.4072 29.1041 32.5827 27.5877 31.2604 25.5308C29.9477 23.4895 28.9581 22.3787 28.623 22.0641C28.5922 22.0351 28.5542 22.0149 28.5129 22.0057C28.4717 21.9964 28.4287 21.9985 28.3885 22.0117C27.2172 22.4142 26.087 22.9278 25.0134 23.5455C23.9771 24.148 22.9959 24.8407 22.0813 25.6158C22.0494 25.6429 22.0255 25.6782 22.0121 25.7179C21.9987 25.7576 21.9964 25.8002 22.0054 25.8412C22.1313 26.4282 22.7334 28.8787 24.6018 32.2731C26.5081 35.7373 27.8292 37.5122 30.6287 40.3021C33.4282 43.092 35.2592 44.4926 38.7271 46.3989C42.1215 48.2673 44.5733 48.8699 45.1591 48.9947C45.2001 49.0036 45.2428 49.0013 45.2826 48.9879C45.3224 48.9745 45.3578 48.9506 45.3851 48.9188C46.16 48.0042 46.8526 47.0231 47.4548 45.9867C48.0723 44.9131 48.586 43.7829 48.9886 42.6116C49.0015 42.5717 49.0035 42.5291 48.9944 42.4882C48.9853 42.4473 48.9654 42.4096 48.9368 42.379Z" fill="white"/>
</g>
<defs>
<clipPath id="clip0_2_620">
<rect width="27" height="27" fill="white" transform="translate(22 22)"/>
</clipPath>
</defs>
</svg>
