<svg width="1400" height="80" viewBox="0 0 1400 80" fill="none" xmlns="http://www.w3.org/2000/svg">
  <g clip-path="url(#clip0_2_762)">
    <path d="M523 32.4209H0" stroke="#D1B06B" />
    <path d="M523 50.375H0" stroke="#D1B06B" />
    <path d="M468.384 1V80" stroke="#D1B06B" />
    <path d="M478.788 1V80" stroke="#D1B06B" />
    <path d="M469.947 47.6816H477.229V35.1135H469.947V47.6816Z" fill="#D1B06B" />
  </g>
  <path d="M639.215 60.22C639.432 60.22 639.54 60.35 639.54 60.61C639.54 60.87 639.432 61 639.215 61C638.392 61 637.07 60.9567 635.25 60.87C633.43 60.7833 632.108 60.74 631.285 60.74C630.202 60.74 628.923 60.7833 627.45 60.87C625.977 60.9567 624.828 61 624.005 61C623.832 61 623.745 60.87 623.745 60.61C623.745 60.35 623.832 60.22 624.005 60.22C625.262 60.22 626.172 60.09 626.735 59.83C627.342 59.5267 627.645 59.05 627.645 58.4C627.645 57.75 627.277 56.645 626.54 55.085L621.6 45.075H605.87L602.75 52.095C602.187 53.395 601.905 54.565 601.905 55.605C601.905 57.1217 602.447 58.27 603.53 59.05C604.613 59.83 606.13 60.22 608.08 60.22C608.297 60.22 608.405 60.35 608.405 60.61C608.405 60.87 608.297 61 608.08 61C607.3 61 606.173 60.9567 604.7 60.87C603.053 60.7833 601.623 60.74 600.41 60.74C599.24 60.74 597.875 60.7833 596.315 60.87C594.928 60.9567 593.78 61 592.87 61C592.653 61 592.545 60.87 592.545 60.61C592.545 60.35 592.653 60.22 592.87 60.22C594.083 60.22 595.102 59.9817 595.925 59.505C596.748 59.0283 597.55 58.1833 598.33 56.97C599.11 55.7133 600.042 53.8717 601.125 51.445L615.1 19.985C615.187 19.855 615.382 19.79 615.685 19.79C615.988 19.79 616.162 19.855 616.205 19.985L632.13 52.095C633.647 55.215 634.903 57.36 635.9 58.53C636.94 59.6567 638.045 60.22 639.215 60.22ZM606.585 43.45H620.82L613.345 28.305L606.585 43.45ZM660.011 56.84C660.141 56.84 660.249 56.9267 660.336 57.1C660.466 57.2733 660.466 57.4033 660.336 57.49C658.733 59.0067 657.216 60.1117 655.786 60.805C654.356 61.455 652.839 61.78 651.236 61.78C649.373 61.78 647.791 61.3467 646.491 60.48C645.234 59.57 644.606 58.075 644.606 55.995V41.305C644.606 39.875 644.368 38.9217 643.891 38.445C643.458 37.9683 642.591 37.73 641.291 37.73C641.248 37.73 641.183 37.6867 641.096 37.6C641.053 37.47 641.031 37.34 641.031 37.21C641.031 37.08 641.053 36.9717 641.096 36.885C641.183 36.755 641.248 36.69 641.291 36.69C645.364 36.5167 647.921 34.7617 648.961 31.425C649.048 31.2517 649.221 31.165 649.481 31.165C649.784 31.165 649.936 31.2517 649.936 31.425V36.56C651.973 36.5167 654.854 36.3 658.581 35.91C658.668 35.91 658.754 36.0833 658.841 36.43C658.971 36.7333 659.036 37.08 659.036 37.47C659.036 37.86 658.949 38.25 658.776 38.64C658.646 39.03 658.494 39.2033 658.321 39.16C655.894 38.5967 653.099 38.25 649.936 38.12V53.85C649.936 55.54 650.348 56.7967 651.171 57.62C652.038 58.4 653.229 58.79 654.746 58.79C656.566 58.79 658.278 58.1617 659.881 56.905L660.011 56.84ZM681.91 56.84C682.04 56.84 682.149 56.9267 682.235 57.1C682.365 57.2733 682.365 57.4033 682.235 57.49C680.632 59.0067 679.115 60.1117 677.685 60.805C676.255 61.455 674.739 61.78 673.135 61.78C671.272 61.78 669.69 61.3467 668.39 60.48C667.134 59.57 666.505 58.075 666.505 55.995V41.305C666.505 39.875 666.267 38.9217 665.79 38.445C665.357 37.9683 664.49 37.73 663.19 37.73C663.147 37.73 663.082 37.6867 662.995 37.6C662.952 37.47 662.93 37.34 662.93 37.21C662.93 37.08 662.952 36.9717 662.995 36.885C663.082 36.755 663.147 36.69 663.19 36.69C667.264 36.5167 669.82 34.7617 670.86 31.425C670.947 31.2517 671.12 31.165 671.38 31.165C671.684 31.165 671.835 31.2517 671.835 31.425V36.56C673.872 36.5167 676.754 36.3 680.48 35.91C680.567 35.91 680.654 36.0833 680.74 36.43C680.87 36.7333 680.935 37.08 680.935 37.47C680.935 37.86 680.849 38.25 680.675 38.64C680.545 39.03 680.394 39.2033 680.22 39.16C677.794 38.5967 674.999 38.25 671.835 38.12V53.85C671.835 55.54 672.247 56.7967 673.07 57.62C673.937 58.4 675.129 58.79 676.645 58.79C678.465 58.79 680.177 58.1617 681.78 56.905L681.91 56.84ZM698.285 61.845C695.685 61.845 693.388 61.2383 691.395 60.025C689.401 58.7683 687.863 57.1 686.78 55.02C685.696 52.8967 685.155 50.6 685.155 48.13C685.155 45.3133 685.848 42.93 687.235 40.98C688.665 38.9867 690.463 37.5133 692.63 36.56C694.84 35.5633 697.093 35.065 699.39 35.065C702.033 35.065 704.33 35.6933 706.28 36.95C708.273 38.2067 709.79 39.875 710.83 41.955C711.87 43.9917 712.39 46.18 712.39 48.52C712.39 51.12 711.74 53.4383 710.44 55.475C709.183 57.5117 707.471 59.0933 705.305 60.22C703.138 61.3033 700.798 61.845 698.285 61.845ZM700.235 60.545C702.141 60.545 703.593 59.7 704.59 58.01C705.63 56.32 706.15 53.85 706.15 50.6C706.15 47.6967 705.738 45.1617 704.915 42.995C704.135 40.8283 703.051 39.1817 701.665 38.055C700.321 36.9283 698.848 36.365 697.245 36.365C695.295 36.365 693.821 37.1667 692.825 38.77C691.828 40.3733 691.33 42.735 691.33 45.855C691.33 48.6717 691.698 51.2067 692.435 53.46C693.215 55.67 694.276 57.4033 695.62 58.66C697.006 59.9167 698.545 60.545 700.235 60.545ZM733.536 35.26C734.533 35.26 735.486 35.585 736.396 36.235C737.306 36.885 737.761 37.665 737.761 38.575C737.761 39.3983 737.501 40.07 736.981 40.59C736.504 41.11 735.833 41.37 734.966 41.37C734.403 41.37 733.926 41.2617 733.536 41.045C733.189 40.785 732.821 40.4383 732.431 40.005C732.041 39.615 731.694 39.3333 731.391 39.16C731.088 38.9433 730.719 38.835 730.286 38.835C729.809 38.835 729.289 39.03 728.726 39.42C728.206 39.7667 727.383 40.525 726.256 41.695V55.735C726.256 56.9483 726.429 57.88 726.776 58.53C727.123 59.1367 727.708 59.57 728.531 59.83C729.354 60.09 730.568 60.22 732.171 60.22C732.344 60.22 732.431 60.35 732.431 60.61C732.431 60.87 732.344 61 732.171 61C730.741 61 729.593 60.9783 728.726 60.935L723.591 60.87L719.821 60.935C719.214 60.9783 718.369 61 717.286 61C717.156 61 717.091 60.87 717.091 60.61C717.091 60.35 717.156 60.22 717.286 60.22C718.759 60.22 719.734 59.9167 720.211 59.31C720.688 58.7033 720.926 57.5117 720.926 55.735V43.32C720.926 41.9333 720.753 40.915 720.406 40.265C720.103 39.615 719.583 39.29 718.846 39.29C718.196 39.29 717.113 39.615 715.596 40.265H715.531C715.358 40.265 715.228 40.1567 715.141 39.94C715.054 39.7233 715.076 39.5933 715.206 39.55L723.721 35.39C723.981 35.3033 724.133 35.26 724.176 35.26C724.609 35.26 725.043 35.7367 725.476 36.69C725.909 37.6 726.169 38.8133 726.256 40.33C727.946 38.4233 729.354 37.1017 730.481 36.365C731.608 35.6283 732.626 35.26 733.536 35.26ZM771.693 60.22C771.823 60.22 771.888 60.35 771.888 60.61C771.888 60.87 771.823 61 771.693 61C770.609 61 769.764 60.9783 769.158 60.935L765.388 60.87L761.683 60.935C761.033 60.9783 760.166 61 759.083 61C758.953 61 758.888 60.87 758.888 60.61C758.888 60.35 758.953 60.22 759.083 60.22C760.556 60.22 761.531 59.9167 762.008 59.31C762.484 58.7033 762.723 57.5117 762.723 55.735V45.985C762.723 43.5583 762.268 41.7817 761.358 40.655C760.491 39.485 759.104 38.9 757.198 38.9C756.071 38.9 754.923 39.16 753.753 39.68C752.583 40.2 751.521 40.8933 750.568 41.76V55.735C750.568 57.5117 750.806 58.7033 751.283 59.31C751.759 59.9167 752.734 60.22 754.208 60.22C754.338 60.22 754.403 60.35 754.403 60.61C754.403 60.87 754.338 61 754.208 61C753.124 61 752.279 60.9783 751.673 60.935L747.903 60.87L744.133 60.935C743.526 60.9783 742.681 61 741.598 61C741.468 61 741.403 60.87 741.403 60.61C741.403 60.35 741.468 60.22 741.598 60.22C743.071 60.22 744.046 59.9167 744.523 59.31C744.999 58.7033 745.238 57.5117 745.238 55.735V43.32C745.238 41.9333 745.064 40.915 744.718 40.265C744.414 39.615 743.894 39.29 743.158 39.29C742.508 39.29 741.424 39.615 739.908 40.265H739.843C739.669 40.265 739.539 40.1567 739.453 39.94C739.366 39.7233 739.388 39.5933 739.518 39.55L748.033 35.39C748.293 35.3033 748.444 35.26 748.488 35.26C748.921 35.26 749.354 35.7583 749.788 36.755C750.264 37.7083 750.524 38.965 750.568 40.525C753.601 36.9283 756.894 35.13 760.448 35.13C762.831 35.13 764.694 35.8667 766.038 37.34C767.381 38.77 768.053 40.72 768.053 43.19V55.735C768.053 57.5117 768.291 58.7033 768.768 59.31C769.244 59.9167 770.219 60.22 771.693 60.22ZM797.591 56.905C797.678 56.905 797.764 56.9917 797.851 57.165C797.981 57.3383 798.003 57.4683 797.916 57.555C796.313 59.0283 794.709 60.1117 793.106 60.805C791.503 61.455 789.769 61.78 787.906 61.78C785.263 61.78 782.966 61.195 781.016 60.025C779.109 58.855 777.636 57.3167 776.596 55.41C775.599 53.5033 775.101 51.445 775.101 49.235C775.101 46.6783 775.729 44.3383 776.986 42.215C778.243 40.0917 779.954 38.4233 782.121 37.21C784.331 35.9533 786.779 35.325 789.466 35.325C792.066 35.325 794.081 35.9533 795.511 37.21C796.941 38.4667 797.656 40.33 797.656 42.8C797.656 44.0567 797.396 44.685 796.876 44.685L781.016 44.75C780.973 45.14 780.951 45.725 780.951 46.505C780.951 50.3183 781.818 53.3517 783.551 55.605C785.328 57.815 787.841 58.92 791.091 58.92C792.304 58.92 793.323 58.79 794.146 58.53C794.969 58.2267 796.074 57.7067 797.461 56.97L797.591 56.905ZM787.126 36.625C785.523 36.625 784.201 37.2533 783.161 38.51C782.164 39.7233 781.493 41.4133 781.146 43.58L791.546 43.385C791.459 38.8783 789.986 36.625 787.126 36.625ZM828.404 35.91C828.49 35.91 828.534 36.04 828.534 36.3C828.534 36.56 828.49 36.69 828.404 36.69C827.104 36.69 825.977 37.21 825.024 38.25C824.114 39.29 823.269 40.8717 822.489 42.995L815.014 62.82C813.454 66.98 811.959 70.2517 810.529 72.635C809.099 75.0183 807.647 76.7083 806.174 77.705C804.7 78.745 803.075 79.265 801.299 79.265C800.085 79.265 799.154 79.005 798.504 78.485C797.81 78.0083 797.464 77.2717 797.464 76.275C797.464 75.4083 797.745 74.7367 798.309 74.26C798.829 73.8267 799.479 73.61 800.259 73.61C800.779 73.61 801.212 73.675 801.559 73.805C801.949 73.9783 802.339 74.195 802.729 74.455C803.162 74.715 803.53 74.91 803.834 75.04C804.18 75.17 804.592 75.235 805.069 75.235C806.065 75.235 806.975 74.8233 807.799 74C808.665 73.22 809.554 71.8983 810.464 70.035C811.417 68.1717 812.544 65.5283 813.844 62.105L803.574 41.305C802.62 39.4417 801.862 38.2067 801.299 37.6C800.779 36.9933 800.129 36.69 799.349 36.69C799.219 36.69 799.154 36.56 799.154 36.3C799.154 36.04 799.219 35.91 799.349 35.91C800.475 35.91 801.342 35.9317 801.949 35.975L804.484 36.04L808.904 35.975C809.554 35.9317 810.442 35.91 811.569 35.91C811.699 35.91 811.764 36.04 811.764 36.3C811.764 36.56 811.699 36.69 811.569 36.69C810.399 36.69 809.532 36.7983 808.969 37.015C808.449 37.1883 808.189 37.535 808.189 38.055C808.189 38.445 808.297 38.835 808.514 39.225L816.444 55.605L820.799 42.995C821.189 41.8683 821.384 40.915 821.384 40.135C821.384 37.8383 819.932 36.69 817.029 36.69C816.942 36.69 816.899 36.56 816.899 36.3C816.899 36.04 816.942 35.91 817.029 35.91C818.199 35.91 819.087 35.9317 819.694 35.975L823.594 36.04L826.129 35.975C826.605 35.9317 827.364 35.91 828.404 35.91ZM835.143 39.29C835.143 40.6333 835.598 41.76 836.508 42.67C837.462 43.58 838.827 44.5333 840.603 45.53C842.163 46.3967 843.355 47.1117 844.178 47.675C845.045 48.2383 845.782 48.9967 846.388 49.95C847.038 50.9033 847.363 52.0517 847.363 53.395C847.363 54.8683 846.995 56.2333 846.258 57.49C845.522 58.7467 844.417 59.765 842.943 60.545C841.513 61.325 839.802 61.715 837.808 61.715C835.425 61.715 833.237 61.1083 831.243 59.895C830.983 59.635 830.853 59.375 830.853 59.115L830.723 53.135C830.723 53.005 830.832 52.94 831.048 52.94C831.308 52.8967 831.46 52.9183 831.503 53.005C832.24 55.1717 833.345 56.9483 834.818 58.335C836.335 59.7217 837.938 60.415 839.628 60.415C840.712 60.415 841.557 60.1333 842.163 59.57C842.77 59.0067 843.073 58.1617 843.073 57.035C843.073 55.3883 842.597 54.0883 841.643 53.135C840.69 52.1383 839.303 51.1633 837.483 50.21C836.01 49.43 834.862 48.78 834.038 48.26C833.215 47.6967 832.5 46.96 831.893 46.05C831.33 45.0967 831.048 43.9267 831.048 42.54C831.048 40.07 831.937 38.2283 833.713 37.015C835.533 35.8017 837.722 35.195 840.278 35.195C841.968 35.195 843.702 35.52 845.478 36.17C845.868 36.3433 846.063 36.5817 846.063 36.885C846.063 37.8817 846.042 38.6617 845.998 39.225L845.933 42.345C845.933 42.475 845.803 42.54 845.543 42.54C845.283 42.54 845.153 42.475 845.153 42.345C845.153 41.4783 844.807 40.59 844.113 39.68C843.42 38.7267 842.532 37.9467 841.448 37.34C840.365 36.7333 839.26 36.43 838.133 36.43C836.14 36.43 835.143 37.3833 835.143 39.29ZM870.563 56.84C870.693 56.84 870.801 56.9267 870.888 57.1C871.018 57.2733 871.018 57.4033 870.888 57.49C869.284 59.0067 867.768 60.1117 866.338 60.805C864.908 61.455 863.391 61.78 861.788 61.78C859.924 61.78 858.343 61.3467 857.043 60.48C855.786 59.57 855.158 58.075 855.158 55.995V41.305C855.158 39.875 854.919 38.9217 854.443 38.445C854.009 37.9683 853.143 37.73 851.843 37.73C851.799 37.73 851.734 37.6867 851.648 37.6C851.604 37.47 851.583 37.34 851.583 37.21C851.583 37.08 851.604 36.9717 851.648 36.885C851.734 36.755 851.799 36.69 851.843 36.69C855.916 36.5167 858.473 34.7617 859.513 31.425C859.599 31.2517 859.773 31.165 860.033 31.165C860.336 31.165 860.488 31.2517 860.488 31.425V36.56C862.524 36.5167 865.406 36.3 869.133 35.91C869.219 35.91 869.306 36.0833 869.393 36.43C869.523 36.7333 869.588 37.08 869.588 37.47C869.588 37.86 869.501 38.25 869.328 38.64C869.198 39.03 869.046 39.2033 868.873 39.16C866.446 38.5967 863.651 38.25 860.488 38.12V53.85C860.488 55.54 860.899 56.7967 861.723 57.62C862.589 58.4 863.781 58.79 865.298 58.79C867.118 58.79 868.829 58.1617 870.433 56.905L870.563 56.84ZM896.297 56.905C896.384 56.905 896.47 56.9917 896.557 57.165C896.687 57.3383 896.709 57.4683 896.622 57.555C895.019 59.0283 893.415 60.1117 891.812 60.805C890.209 61.455 888.475 61.78 886.612 61.78C883.969 61.78 881.672 61.195 879.722 60.025C877.815 58.855 876.342 57.3167 875.302 55.41C874.305 53.5033 873.807 51.445 873.807 49.235C873.807 46.6783 874.435 44.3383 875.692 42.215C876.949 40.0917 878.66 38.4233 880.827 37.21C883.037 35.9533 885.485 35.325 888.172 35.325C890.772 35.325 892.787 35.9533 894.217 37.21C895.647 38.4667 896.362 40.33 896.362 42.8C896.362 44.0567 896.102 44.685 895.582 44.685L879.722 44.75C879.679 45.14 879.657 45.725 879.657 46.505C879.657 50.3183 880.524 53.3517 882.257 55.605C884.034 57.815 886.547 58.92 889.797 58.92C891.01 58.92 892.029 58.79 892.852 58.53C893.675 58.2267 894.78 57.7067 896.167 56.97L896.297 56.905ZM885.832 36.625C884.229 36.625 882.907 37.2533 881.867 38.51C880.87 39.7233 880.199 41.4133 879.852 43.58L890.252 43.385C890.165 38.8783 888.692 36.625 885.832 36.625ZM917.555 35.26C918.551 35.26 919.505 35.585 920.415 36.235C921.325 36.885 921.78 37.665 921.78 38.575C921.78 39.3983 921.52 40.07 921 40.59C920.523 41.11 919.851 41.37 918.985 41.37C918.421 41.37 917.945 41.2617 917.555 41.045C917.208 40.785 916.84 40.4383 916.45 40.005C916.06 39.615 915.713 39.3333 915.41 39.16C915.106 38.9433 914.738 38.835 914.305 38.835C913.828 38.835 913.308 39.03 912.745 39.42C912.225 39.7667 911.401 40.525 910.275 41.695V55.735C910.275 56.9483 910.448 57.88 910.795 58.53C911.141 59.1367 911.726 59.57 912.55 59.83C913.373 60.09 914.586 60.22 916.19 60.22C916.363 60.22 916.45 60.35 916.45 60.61C916.45 60.87 916.363 61 916.19 61C914.76 61 913.611 60.9783 912.745 60.935L907.61 60.87L903.84 60.935C903.233 60.9783 902.388 61 901.305 61C901.175 61 901.11 60.87 901.11 60.61C901.11 60.35 901.175 60.22 901.305 60.22C902.778 60.22 903.753 59.9167 904.23 59.31C904.706 58.7033 904.945 57.5117 904.945 55.735V43.32C904.945 41.9333 904.771 40.915 904.425 40.265C904.121 39.615 903.601 39.29 902.865 39.29C902.215 39.29 901.131 39.615 899.615 40.265H899.55C899.376 40.265 899.246 40.1567 899.16 39.94C899.073 39.7233 899.095 39.5933 899.225 39.55L907.74 35.39C908 35.3033 908.151 35.26 908.195 35.26C908.628 35.26 909.061 35.7367 909.495 36.69C909.928 37.6 910.188 38.8133 910.275 40.33C911.965 38.4233 913.373 37.1017 914.5 36.365C915.626 35.6283 916.645 35.26 917.555 35.26Z" fill="white" />
  <path d="M581.44 24.8233C581.44 20.688 578.009 17.3359 573.777 17.3359H532.664C528.431 17.3359 525 20.688 525 24.8233" stroke="url(#paint0_radial_2_762)" stroke-width="3.5" stroke-miterlimit="10" />
  <path d="M527 62.6953C527 66.6965 530.252 69.9407 534.263 69.9407H573.229C577.241 69.9407 580.493 66.6965 580.493 62.6953" stroke="url(#paint1_radial_2_762)" stroke-width="3.5" stroke-miterlimit="10" />
  <path d="M541.578 28H538V58.7272H541.578V28Z" fill="url(#paint2_radial_2_762)" />
  <path d="M548.232 28H544.653V58.7272H548.232V28Z" fill="url(#paint3_radial_2_762)" />
  <path d="M555.01 28H551.432V58.7272H555.01V28Z" fill="url(#paint4_radial_2_762)" />
  <path d="M561.6 28H558.022V58.7272H561.6V28Z" fill="url(#paint5_radial_2_762)" />
  <path d="M568.349 28H564.771V58.7272H568.349V28Z" fill="url(#paint6_radial_2_762)" />
  <path d="M541.578 74.5918H538V80H541.578V74.5918Z" fill="url(#paint7_radial_2_762)" />
  <path d="M548.232 74.5918H544.653V80H548.232V74.5918Z" fill="url(#paint8_radial_2_762)" />
  <path d="M555.011 74.5918H551.432V80H555.011V74.5918Z" fill="url(#paint9_radial_2_762)" />
  <path d="M561.602 74.5918H558.024V80H561.602V74.5918Z" fill="url(#paint10_radial_2_762)" />
  <path d="M568.349 74.5918H564.771V80H568.349V74.5918Z" fill="url(#paint11_radial_2_762)" />
  <path d="M548.23 2H544.652V7.40822H548.23V2Z" fill="url(#paint12_radial_2_762)" />
  <path d="M555.01 2H551.432V7.40822H555.01V2Z" fill="url(#paint13_radial_2_762)" />
  <path d="M561.6 2H558.022V7.40822H561.6V2Z" fill="url(#paint14_radial_2_762)" />
  <path d="M571.486 25.5694V22H536V25.5694H571.486Z" fill="url(#paint15_radial_2_762)" />
  <path d="M571 65.3702V61.8008H535.514V65.3702H571Z" fill="url(#paint16_radial_2_762)" />
  <path d="M571 12.8438V9.27441H535.514V12.8438H571Z" fill="url(#paint17_radial_2_762)" />
  <g clip-path="url(#clip1_2_762)">
    <path d="M923 48.5791H1446" stroke="#D1B06B" />
    <path d="M923 30.625H1446" stroke="#D1B06B" />
    <path d="M977.616 80V1" stroke="#D1B06B" />
    <path d="M967.212 80V1" stroke="#D1B06B" />
    <path d="M976.054 33.3184H968.772V45.8865H976.054V33.3184Z" fill="#D1B06B" />
  </g>
  <defs>
    <radialGradient id="paint0_radial_2_762" cx="0" cy="0" r="1" gradientUnits="userSpaceOnUse" gradientTransform="translate(553.22 21.0796) rotate(90) scale(3.7437 28.22)">
      <stop stop-color="#DBBC80" />
      <stop offset="1" stop-color="#AB8219" />
    </radialGradient>
    <radialGradient id="paint1_radial_2_762" cx="0" cy="0" r="1" gradientUnits="userSpaceOnUse" gradientTransform="translate(553.746 66.318) rotate(90) scale(3.62271 26.7464)">
      <stop stop-color="#DBBC80" />
      <stop offset="1" stop-color="#AB8219" />
    </radialGradient>
    <radialGradient id="paint2_radial_2_762" cx="0" cy="0" r="1" gradientUnits="userSpaceOnUse" gradientTransform="translate(539.789 43.3636) rotate(90) scale(15.3636 1.78911)">
      <stop stop-color="#DBBC80" />
      <stop offset="1" stop-color="#AB8219" />
    </radialGradient>
    <radialGradient id="paint3_radial_2_762" cx="0" cy="0" r="1" gradientUnits="userSpaceOnUse" gradientTransform="translate(546.443 43.3636) rotate(90) scale(15.3636 1.78911)">
      <stop stop-color="#DBBC80" />
      <stop offset="1" stop-color="#AB8219" />
    </radialGradient>
    <radialGradient id="paint4_radial_2_762" cx="0" cy="0" r="1" gradientUnits="userSpaceOnUse" gradientTransform="translate(553.221 43.3636) rotate(90) scale(15.3636 1.78911)">
      <stop stop-color="#DBBC80" />
      <stop offset="1" stop-color="#AB8219" />
    </radialGradient>
    <radialGradient id="paint5_radial_2_762" cx="0" cy="0" r="1" gradientUnits="userSpaceOnUse" gradientTransform="translate(559.811 43.3636) rotate(90) scale(15.3636 1.78911)">
      <stop stop-color="#DBBC80" />
      <stop offset="1" stop-color="#AB8219" />
    </radialGradient>
    <radialGradient id="paint6_radial_2_762" cx="0" cy="0" r="1" gradientUnits="userSpaceOnUse" gradientTransform="translate(566.56 43.3636) rotate(90) scale(15.3636 1.78911)">
      <stop stop-color="#DBBC80" />
      <stop offset="1" stop-color="#AB8219" />
    </radialGradient>
    <radialGradient id="paint7_radial_2_762" cx="0" cy="0" r="1" gradientUnits="userSpaceOnUse" gradientTransform="translate(539.789 77.2959) rotate(90) scale(2.70411 1.78911)">
      <stop stop-color="#DBBC80" />
      <stop offset="1" stop-color="#AB8219" />
    </radialGradient>
    <radialGradient id="paint8_radial_2_762" cx="0" cy="0" r="1" gradientUnits="userSpaceOnUse" gradientTransform="translate(546.443 77.2959) rotate(90) scale(2.70411 1.78911)">
      <stop stop-color="#DBBC80" />
      <stop offset="1" stop-color="#AB8219" />
    </radialGradient>
    <radialGradient id="paint9_radial_2_762" cx="0" cy="0" r="1" gradientUnits="userSpaceOnUse" gradientTransform="translate(553.221 77.2959) rotate(90) scale(2.70411 1.78911)">
      <stop stop-color="#DBBC80" />
      <stop offset="1" stop-color="#AB8219" />
    </radialGradient>
    <radialGradient id="paint10_radial_2_762" cx="0" cy="0" r="1" gradientUnits="userSpaceOnUse" gradientTransform="translate(559.813 77.2959) rotate(90) scale(2.70411 1.78911)">
      <stop stop-color="#DBBC80" />
      <stop offset="1" stop-color="#AB8219" />
    </radialGradient>
    <radialGradient id="paint11_radial_2_762" cx="0" cy="0" r="1" gradientUnits="userSpaceOnUse" gradientTransform="translate(566.56 77.2959) rotate(90) scale(2.70411 1.78911)">
      <stop stop-color="#DBBC80" />
      <stop offset="1" stop-color="#AB8219" />
    </radialGradient>
    <radialGradient id="paint12_radial_2_762" cx="0" cy="0" r="1" gradientUnits="userSpaceOnUse" gradientTransform="translate(546.441 4.70411) rotate(90) scale(2.70411 1.78911)">
      <stop stop-color="#DBBC80" />
      <stop offset="1" stop-color="#AB8219" />
    </radialGradient>
    <radialGradient id="paint13_radial_2_762" cx="0" cy="0" r="1" gradientUnits="userSpaceOnUse" gradientTransform="translate(553.221 4.70411) rotate(90) scale(2.70411 1.78911)">
      <stop stop-color="#DBBC80" />
      <stop offset="1" stop-color="#AB8219" />
    </radialGradient>
    <radialGradient id="paint14_radial_2_762" cx="0" cy="0" r="1" gradientUnits="userSpaceOnUse" gradientTransform="translate(559.811 4.70411) rotate(90) scale(2.70411 1.78911)">
      <stop stop-color="#DBBC80" />
      <stop offset="1" stop-color="#AB8219" />
    </radialGradient>
    <radialGradient id="paint15_radial_2_762" cx="0" cy="0" r="1" gradientUnits="userSpaceOnUse" gradientTransform="translate(553.743 23.7847) rotate(-180) scale(17.7432 1.78468)">
      <stop stop-color="#DBBC80" />
      <stop offset="1" stop-color="#AB8219" />
    </radialGradient>
    <radialGradient id="paint16_radial_2_762" cx="0" cy="0" r="1" gradientUnits="userSpaceOnUse" gradientTransform="translate(553.257 63.5855) rotate(180) scale(17.7432 1.78469)">
      <stop stop-color="#DBBC80" />
      <stop offset="1" stop-color="#AB8219" />
    </radialGradient>
    <radialGradient id="paint17_radial_2_762" cx="0" cy="0" r="1" gradientUnits="userSpaceOnUse" gradientTransform="translate(553.257 11.0591) rotate(-180) scale(17.7432 1.78468)">
      <stop stop-color="#DBBC80" />
      <stop offset="1" stop-color="#AB8219" />
    </radialGradient>
    <clipPath id="clip0_2_762">
      <rect width="523" height="79" fill="white" transform="translate(0 1)" />
    </clipPath>
    <clipPath id="clip1_2_762">
      <rect width="523" height="79" fill="white" transform="translate(923 1)" />
    </clipPath>
  </defs>
</svg>