<svg xmlns="http://www.w3.org/2000/svg" width="20" height="20" viewBox="0 0 20 20" fill="none">
  <g clip-path="url(#clip0_2_865)">
    <path d="M13.8655 2.39882C14.9461 2.40193 15.9816 2.8167 16.7458 3.55255C17.5099 4.2884 17.9407 5.28554 17.9439 6.32618V14.1801C17.9407 15.2207 17.5099 16.2179 16.7458 16.9537C15.9816 17.6896 14.9461 18.1043 13.8655 18.1074H5.70952C4.62885 18.1043 3.59336 17.6896 2.82921 16.9537C2.06506 16.2179 1.63433 15.2207 1.6311 14.1801V6.32618C1.63433 5.28554 2.06506 4.2884 2.82921 3.55255C3.59336 2.8167 4.62885 2.40193 5.70952 2.39882H13.8655ZM13.8655 0.828125H5.70952C2.56922 0.828125 0 3.30219 0 6.32618V14.1801C0 17.2041 2.56922 19.6781 5.70952 19.6781H13.8655C17.0058 19.6781 19.575 17.2041 19.575 14.1801V6.32618C19.575 3.30219 17.0058 0.828125 13.8655 0.828125Z" fill="white"/>
    <path d="M15.0897 6.32598C14.8477 6.32598 14.6112 6.25688 14.41 6.12743C14.2088 5.99797 14.052 5.81397 13.9594 5.5987C13.8668 5.38343 13.8426 5.14655 13.8898 4.91801C13.937 4.68948 14.0535 4.47956 14.2246 4.31479C14.3957 4.15003 14.6137 4.03782 14.851 3.99236C15.0883 3.94691 15.3343 3.97024 15.5579 4.05941C15.7814 4.14858 15.9725 4.29958 16.1069 4.49332C16.2414 4.68706 16.3131 4.91484 16.3131 5.14785C16.3135 5.30266 16.2821 5.45601 16.2207 5.59909C16.1593 5.74218 16.0692 5.87219 15.9556 5.98165C15.8419 6.09112 15.7069 6.17789 15.5583 6.23698C15.4097 6.29606 15.2505 6.32631 15.0897 6.32598ZM9.78828 7.11111C10.4336 7.11111 11.0644 7.29538 11.6009 7.6406C12.1374 7.98583 12.5556 8.47651 12.8026 9.0506C13.0495 9.62469 13.1141 10.2564 12.9882 10.8659C12.8623 11.4753 12.5516 12.0351 12.0953 12.4745C11.639 12.9139 11.0577 13.2131 10.4248 13.3344C9.7919 13.4556 9.13589 13.3934 8.53972 13.1556C7.94355 12.9178 7.434 12.5151 7.07549 11.9984C6.71699 11.4817 6.52564 10.8743 6.52564 10.2529C6.52656 9.41993 6.8706 8.62132 7.48227 8.03231C8.09393 7.4433 8.92326 7.112 9.78828 7.11111ZM9.78828 5.54042C8.82039 5.54042 7.87423 5.8168 7.06946 6.33462C6.26469 6.85244 5.63744 7.58843 5.26705 8.44952C4.89665 9.31062 4.79974 10.2581 4.98857 11.1723C5.17739 12.0864 5.64348 12.9261 6.32788 13.5852C7.01228 14.2442 7.88426 14.693 8.83356 14.8749C9.78285 15.0567 10.7668 14.9634 11.661 14.6067C12.5553 14.25 13.3196 13.646 13.8573 12.871C14.395 12.0961 14.682 11.185 14.682 10.2529C14.682 9.00309 14.1664 7.80445 13.2487 6.92068C12.3309 6.03691 11.0862 5.54042 9.78828 5.54042Z" fill="white"/>
  </g>
  <defs>
    <clipPath id="clip0_2_865">
      <rect width="20" height="20" fill="white"/>
    </clipPath>
  </defs>
</svg>